<svg xmlns="http://www.w3.org/2000/svg" xmlns:xlink="http://www.w3.org/1999/xlink" xml:space="preserve" version="1.1" style="shape-rendering:geometricPrecision;text-rendering:geometricPrecision;image-rendering:optimizeQuality;" viewBox="0 0 6.989 6.85125" x="0px" y="0px" fill-rule="evenodd" clip-rule="evenodd"><defs><style type="text/css">
   
    .fil0 {fill:white;fill-rule:nonzero}
   
  </style></defs><g><path class="fil0" d="M0.605 1.758l0.926 0 0.816 -1.632c0.056,-0.113 0.193,-0.158 0.305,-0.102 0.113,0.056 0.158,0.193 0.102,0.305l-0.714 1.429 2.91 0 -0.715 -1.429c-0.056,-0.112 -0.01,-0.249 0.102,-0.305 0.112,-0.056 0.249,-0.011 0.305,0.102l0.816 1.632 0.926 0 0.377 0c0.126,0 0.228,0.102 0.228,0.228 0,0.126 -0.102,0.229 -0.228,0.229l-0.184 0 -0.51 3.074c-0.019,0.112 -0.116,0.191 -0.225,0.191l0 0.001 -4.694 0c-0.12,0 -0.218,-0.091 -0.228,-0.208l-0.508 -3.058 -0.184 0c-0.126,0 -0.228,-0.103 -0.228,-0.229 0,-0.126 0.102,-0.228 0.228,-0.228l0.377 0zm3.118 2.465c0,0.126 -0.102,0.228 -0.228,0.228 -0.126,0 -0.229,-0.102 -0.229,-0.228l0 -1.207c0,-0.126 0.103,-0.229 0.229,-0.229 0.126,0 0.228,0.103 0.228,0.229l0 1.207zm1.164 0.037c-0.02,0.124 -0.137,0.208 -0.261,0.188 -0.124,-0.02 -0.208,-0.137 -0.188,-0.262l0.2 -1.207c0.02,-0.124 0.137,-0.208 0.262,-0.188 0.124,0.02 0.208,0.137 0.188,0.261l-0.201 1.208zm-2.335 -0.074c0.02,0.125 -0.065,0.242 -0.189,0.262 -0.124,0.02 -0.241,-0.064 -0.261,-0.188l-0.201 -1.208c-0.02,-0.124 0.065,-0.241 0.189,-0.261 0.124,-0.02 0.241,0.064 0.261,0.188l0.201 1.207zm0.943 -1.971l-2.621 0 0.467 2.809 4.308 0 0.466 -2.809 -2.62 0z"/></g></svg>