<?xml version="1.0" encoding="utf-8"?>
<!-- Generator: Adobe Illustrator 23.0.6, SVG Export Plug-In . SVG Version: 6.00 Build 0)  -->
<svg version="1.1" id="Layer_1" xmlns="http://www.w3.org/2000/svg" xmlns:xlink="http://www.w3.org/1999/xlink" x="0px" y="0px"
	 viewBox="0 0 124.49 124.49" style="enable-background:new 0 0 124.49 124.49;" xml:space="preserve">
<style type="text/css">
	.st0{fill:#4D555C;}
	.st1{fill:#E26567;}
	.st2{fill:#FFFFFF;}
</style>
<path class="st0" d="M91.07,102.84c-4.13,3.26-8.89,5.75-13.91,7.51c-5.04,1.68-10.38,2.58-15.73,2.57
	c-10.7,0.01-21.45-3.5-30.05-9.98c-8.63-6.45-15-15.77-18.06-26.03c-1.45-5.17-1.98-10.52-1.9-15.84c0.29-5.31,1.32-10.57,3.3-15.46
	c-3,10.1-2.68,20.92,0.43,30.73c1.72,4.86,3.97,9.52,6.96,13.71c2.92,4.23,6.67,7.84,10.76,10.91c8.1,6.35,18.32,9.67,28.6,10.07
	C71.78,111.45,82.21,108.49,91.07,102.84"/>
<path class="st0" d="M20.11,34.57c3.69-6.12,8.81-11.39,14.77-15.47c6.04-3.96,12.93-6.67,20.12-7.79
	c14.37-2.2,29.74,2.07,40.75,11.76c11.02,9.6,17.71,24.05,17.49,38.65c-0.09,7.27-1.73,14.5-4.82,21.03
	c-3.15,6.49-7.64,12.32-13.2,16.82c10.44-9.76,16.44-23.82,16.12-37.84c-0.18-7-1.69-13.96-4.67-20.27
	c-2.95-6.32-7.26-11.98-12.54-16.52c-5.21-4.6-11.43-8.1-18.13-10.05c-6.68-1.99-13.79-2.5-20.74-1.7
	C41.32,14.88,28.31,22.86,20.11,34.57"/>
<path class="st0" d="M55.3,55.28c1.41-1.88,3.84-2.99,6.3-3.14c2.48-0.18,5.09,0.61,7.06,2.32c1.95,1.74,3.07,4.22,3.22,6.7
	c0.18,2.46-0.62,5.01-2.3,6.65c0.78-2.18,0.84-4.37,0.39-6.39c-0.48-2-1.46-3.84-2.94-5.1c-1.44-1.3-3.4-2.04-5.44-2.26
	C59.53,53.88,57.37,54.21,55.3,55.28"/>
<path class="st0" d="M53.56,57.69c-0.36,1.71-0.39,3.3-0.15,4.8c0.26,1.5,0.76,2.91,1.58,4.09c0.78,1.2,1.9,2.2,3.18,3.02
	c1.3,0.79,2.78,1.36,4.5,1.69c-1.62,0.71-3.57,0.68-5.31,0.06c-1.76-0.6-3.34-1.8-4.43-3.39c-1.05-1.61-1.57-3.53-1.45-5.38
	C51.58,60.73,52.28,58.91,53.56,57.69"/>
<path class="st0" d="M74.4,50.02c-1.87-0.2-3.16-2.81-2.07-4.83c0.94-2,3.42-3.02,5.56-2.43c1.05,0.3,2.05,0.92,2.71,1.88
	c0.62,0.97,0.89,2.1,0.67,3.19c-0.32,2.32-3.06,3.56-4.61,2.5c1.79-0.11,2.8-1.55,2.69-2.7c-0.08-1.26-0.91-2.2-2.09-2.48
	c-1.14-0.35-2.46,0.07-3.27,1.02C73.22,47.03,73.09,48.81,74.4,50.02"/>
<path class="st0" d="M86.3,67.45C86,62.06,85.85,56.68,85.65,51.3l-0.09-4.04l-0.05-2.02c-0.04-0.62-0.11-1.2-0.31-1.76
	c-0.71-2.26-2.98-3.6-5.34-4.33c-1.22-0.4-2.33-0.49-3.67-0.49c-1.3-0.02-2.63,0.02-3.96,0.08c-2.61,0.17-5.48,0.23-8.09,0.19
	c-5.3,0-10.77,0.33-16.17-0.4l8.02-1.1c2.67-0.37,5.36-0.71,8.09-0.84l4.02-0.11c1.33-0.07,2.68-0.14,4.04-0.17
	c2.68-0.02,5.53-0.27,8.39,0.77c2.66,0.87,5.53,2.82,6.29,5.92c0.2,0.74,0.25,1.5,0.24,2.23l-0.05,2.02l-0.09,4.04
	C86.75,56.68,86.59,62.06,86.3,67.45"/>
<path class="st0" d="M45.42,39.35c-2.28,0.32-4.02,1.95-4.93,3.84c-0.96,1.88-1.16,4.06-1.21,6.24c0.01,4.45-0.03,9.02-0.15,13.52
	c-0.08,4.52-0.63,9.03,0.18,13.23c0.41,2.1,1.23,4.08,2.6,5.75c1.31,1.71,3.22,2.97,5.46,3.37c-2.3,0.17-4.61-0.94-6.35-2.55
	c-1.74-1.62-2.98-3.83-3.6-6.12c-1.29-4.65-0.8-9.29-0.78-13.76c0.17-4.53,0.31-8.99,0.7-13.56c0.23-2.29,0.72-4.73,2.1-6.75
	C40.83,40.64,43.09,39.09,45.42,39.35"/>
<path class="st0" d="M49.42,85.54c3.36-0.46,6.72-0.76,10.09-0.9c3.35-0.19,6.75-0.17,10.04-0.26c3.26-0.07,6.5-0.41,9.33-1.73
	c2.78-1.35,5.37-3.62,6.18-6.97c0.13,1.71-0.47,3.46-1.4,4.97c-0.99,1.49-2.31,2.76-3.86,3.69c-3.12,1.92-6.78,2.38-10.19,2.51
	c-3.43,0.04-6.75-0.09-10.12-0.29C56.14,86.38,52.78,86.03,49.42,85.54"/>
<path class="st0" d="M55.4,48.48c2.24-1.55,5.11-2.23,7.92-2.07c2.83,0.14,5.64,1.15,7.96,2.9c2.29,1.78,4.01,4.23,4.89,6.92
	c0.89,2.67,0.99,5.62,0.08,8.19c-0.12-2.7-0.77-5.21-1.87-7.46c-1.12-2.24-2.66-4.22-4.6-5.68c-1.91-1.5-4.24-2.46-6.69-2.95
	C60.64,47.85,58.04,47.88,55.4,48.48"/>
<path class="st0" d="M53.69,49.19c-3.83,2.86-6.01,7.34-6.33,11.77c-0.34,4.46,1.64,8.8,4.98,11.67c3.28,2.94,7.85,4.33,12.22,3.4
	c4.35-0.9,8.5-3.64,10.84-7.82c-1.44,4.59-5.52,8.36-10.38,9.69c-2.43,0.71-5.08,0.73-7.58,0.14c-2.49-0.64-4.79-1.89-6.73-3.55
	c-1.9-1.71-3.45-3.82-4.4-6.2c-0.92-2.4-1.24-5.03-0.86-7.53C46.13,55.76,49.33,51.22,53.69,49.19"/>
</svg>
