<?xml version="1.0" encoding="utf-8"?>
<!-- Generator: Adobe Illustrator 23.0.6, SVG Export Plug-In . SVG Version: 6.00 Build 0)  -->
<svg version="1.1" id="Layer_1" xmlns="http://www.w3.org/2000/svg" xmlns:xlink="http://www.w3.org/1999/xlink" x="0px" y="0px"
	 viewBox="0 0 124.49 124.49" style="enable-background:new 0 0 124.49 124.49;" xml:space="preserve">
<style type="text/css">
	.st0{fill:#4D555C;}
	.st1{fill:#E26567;}
	.st2{fill:#FFFFFF;}
</style>
<path class="st1" d="M113.2,61.2c0,29.25-23.71,52.96-52.96,52.96c-29.25,0-52.96-23.71-52.96-52.96S30.99,8.24,60.24,8.24
	C89.49,8.24,113.2,31.95,113.2,61.2"/>
<path class="st2" d="M75.15,86.19H47.32c-1.53-0.68-2.29-1.86-2.76-3.47c-1.75-5.97-3.63-11.9-5.5-17.83
	c-0.14-0.44-0.66-1.06-1.01-1.07c-1.82-0.02-2.85-1.02-3.58-2.53v-1.87c0.98-1.9,2.59-2.38,4.64-2.37c14.75,0.05,29.5,0.05,44.25,0
	c2.05-0.01,3.65,0.48,4.64,2.37v1.87c-0.68,1.32-1.52,2.48-3.18,2.44c-0.99-0.03-1.25,0.45-1.5,1.27
	c-1.79,5.91-3.67,11.79-5.41,17.72C77.44,84.32,76.68,85.51,75.15,86.19 M67.93,73.75c0,1.78-0.01,3.57,0,5.35
	c0.02,1.52,0.88,2.49,2.18,2.52c1.29,0.03,2.26-0.94,2.28-2.44c0.04-3.57,0.04-7.13,0-10.7c-0.02-1.54-0.93-2.44-2.26-2.43
	c-1.35,0.02-2.18,0.93-2.19,2.48C67.91,70.28,67.93,72.02,67.93,73.75 M54.54,73.75c0-1.74,0.02-3.48-0.01-5.22
	c-0.02-1.54-0.87-2.46-2.21-2.48c-1.34-0.01-2.24,0.9-2.26,2.43c-0.04,3.57-0.04,7.13,0,10.7c0.02,1.49,0.99,2.46,2.28,2.43
	c1.3-0.03,2.16-1.01,2.18-2.53C54.56,77.32,54.54,75.53,54.54,73.75 M63.44,73.81c0-1.78,0.02-3.57-0.01-5.35
	c-0.03-1.53-0.9-2.43-2.25-2.4c-1.3,0.03-2.13,0.9-2.14,2.38c-0.03,3.56-0.02,7.13,0,10.69c0.01,1.54,0.87,2.49,2.18,2.49
	c1.31,0.01,2.19-0.94,2.21-2.47C63.46,77.38,63.44,75.59,63.44,73.81"/>
<path class="st2" d="M57.22,36.94c1.9,1.12,2.14,1.84,1.31,3.94c-1.71,4.3-3.46,8.59-5.14,12.9c-0.32,0.83-0.72,1.19-1.64,1.12
	c-1.14-0.09-2.29-0.02-3.62-0.02c1.07-2.68,2.07-5.19,3.07-7.7c1.06-2.65,2.14-5.28,3.15-7.94c0.4-1.06,0.98-1.87,2.06-2.28H57.22z"
	/>
<path class="st2" d="M66.05,36.94c1.08,0.41,1.64,1.24,2.06,2.29c1.87,4.76,3.79,9.51,5.68,14.26c0.16,0.4,0.29,0.82,0.48,1.38
	c-1.45,0-2.77,0.05-4.1-0.03c-0.32-0.02-0.78-0.4-0.91-0.71c-1.89-4.61-3.75-9.24-5.57-13.88c-0.59-1.49-0.16-2.3,1.56-3.31H66.05z"
	/>
</svg>
