<svg enable-background="new 0 0 124.49 124.49" viewBox="0 0 124.49 124.49" xmlns="http://www.w3.org/2000/svg"><g fill="#4d555c"><path d="m90.64 101.07c-4.13 3.26-8.89 5.75-13.91 7.51-5.04 1.68-10.38 2.58-15.73 2.57-10.7.01-21.45-3.5-30.05-9.98-8.63-6.45-15-15.77-18.06-26.03-1.45-5.17-1.98-10.52-1.9-15.84.29-5.31 1.32-10.57 3.29-15.46-2.99 10.1-2.68 20.92.43 30.73 1.72 4.86 3.97 9.52 6.96 13.71 2.92 4.23 6.67 7.84 10.76 10.91 8.1 6.35 18.32 9.67 28.6 10.07 10.32.41 20.75-2.54 29.61-8.19"/><path d="m19.68 32.79c3.69-6.12 8.81-11.39 14.77-15.47 6.04-3.96 12.93-6.67 20.12-7.79 14.37-2.2 29.74 2.07 40.75 11.76 11.02 9.6 17.71 24.05 17.49 38.65-.09 7.27-1.73 14.5-4.82 21.03-3.15 6.49-7.64 12.32-13.2 16.82 10.44-9.76 16.44-23.82 16.12-37.84-.18-7-1.69-13.96-4.67-20.27-2.95-6.32-7.26-11.98-12.53-16.52-5.21-4.6-11.43-8.1-18.13-10.05-6.68-1.99-13.79-2.5-20.74-1.7-13.95 1.69-26.96 9.67-35.16 21.38"/><path d="m44.61 50.84c-.41-1.05-.69-2.11-.98-3.17-.26-1.06-.51-2.13-.71-3.2l1.23 1.06c-3.35.58-6.71.86-10.1.91-1.68.01-3.42-.02-5.13-.27-1.69-.23-3.37-.51-5.06-.99 1.69-.48 3.37-.76 5.06-.99 1.67-.21 3.29-.45 4.98-.61 3.35-.32 6.71-.48 10.1-.37l1.25.04-.02 1.01c-.02 1.09-.09 2.18-.17 3.27-.11 1.11-.22 2.2-.45 3.31z"/><path d="m22.24 71.05c1.75-.48 3.5-.76 5.26-.99 1.75-.23 3.5-.36 5.26-.44 3.5-.14 7.01-.08 10.51.29l-1.04.67c1.12-1.87 2.29-3.73 3.74-5.46-.35 2.22-.98 4.32-1.65 6.4l-.19.58-.85.09c-3.5.36-7.01.42-10.51.29-1.75-.07-3.5-.21-5.26-.44s-3.51-.51-5.27-.99z"/><path d="m39.49 54.34c.42.99.7 1.98.92 2.96.21.99.36 1.98.45 2.96l-2.59.61c-.01.02-.16-.17-.26-.25-.11-.11-.24-.21-.37-.3-.27-.18-.55-.34-.87-.45-.31-.12-.65-.21-1.02-.28-.18-.04-.37-.04-.56-.08l-.72-.06c-.96-.1-1.92-.24-2.88-.45-.96-.22-1.92-.49-2.88-.9.96-.42 1.92-.69 2.88-.9s1.92-.36 2.88-.45l.72-.06c.29-.01.58-.02.87.01.59.02 1.19.18 1.78.38.58.23 1.14.54 1.62.96.24.21.47.43.67.69.21.28.36.48.58.92l-2.59.61c.1-.99.24-1.98.45-2.96.22-.98.5-1.97.92-2.96z"/><path d="m28.17 47.34c.62 1.93.94 3.86 1.18 5.79.22 1.93.32 3.86.32 5.79s-.1 3.86-.32 5.79c-.23 1.93-.55 3.86-1.18 5.79-.62-1.93-.95-3.86-1.18-5.79-.22-1.93-.32-3.86-.32-5.79s.1-3.86.32-5.79c.24-1.93.56-3.86 1.18-5.79z"/><path d="m51.05 53.8c-.38.3-.78.59-1.2.87l-.12-.67c1.08-.23 2.16-.41 3.23-.56l.73-.1.17.96c.45 2.5.69 5.01.85 7.53.14 2.51.17 5.03.06 7.55l-.05-.3c-.02-.04.02.11.05.18.03.08.07.18.13.25.1.17.24.3.39.45.33.24.81.46 1.38.49.28.03.59.02.89.02.31-.04.63-.04.95-.11.65-.08 1.3-.25 1.99-.39-.51.47-1.05.91-1.66 1.28-.62.34-1.28.68-2.05.82-.75.16-1.65.17-2.52-.2-.42-.2-.84-.45-1.17-.8-.17-.17-.32-.36-.46-.56-.14-.22-.25-.37-.38-.73l-.02-.06-.03-.25c-.28-2.51-.44-5.02-.47-7.54-.02-2.52.04-5.04.31-7.57l.9.87c-1.08-.14-2.16-.32-3.23-.56l-1.74-.37 1.63-.3c.47-.07.94-.14 1.44-.2z"/><path d="m54.58 48.41c.61.6.86 1.28.95 1.97.08.69-.04 1.42-.43 2.13-.19.35-.48.69-.84.98-.18.13-.4.27-.6.35-.16.05-.32.08-.49.11-.67.11-1.37.13-2.14-.15.24-.85.55-1.4.9-1.85.09-.11.18-.22.27-.31l.08-.19c.05-.13.12-.24.2-.41.18-.31.42-.69.74-1.14.34-.45.73-.93 1.36-1.49z"/><path d="m59.97 54.88c-.45.62-.9.94-1.35 1.18-.45.22-.9.32-1.35.32s-.9-.1-1.35-.32c-.45-.23-.9-.55-1.35-1.18.45-.62.9-.95 1.35-1.18.45-.22.9-.32 1.35-.32s.9.1 1.35.32c.46.24.9.56 1.35 1.18z"/><path d="m69.68 61.89c2.05.13 4.06.53 5.97 1.82.47.33.94.77 1.32 1.34.4.57.63 1.34.64 2.09.03.77-.21 1.44-.47 2.03-.26.56-.64 1.12-1.09 1.6-.93.94-2.13 1.5-3.28 1.72-1.16.23-2.29.2-3.37-.01-.54-.11-1.07-.26-1.58-.46-.62-.23-1.15-.64-1.53-1.1-.74-.96-1-2.05-.91-3.08.55.86 1.18 1.62 1.9 1.99.35.19.7.28 1.03.29.43.03.88.04 1.31.02 1.75-.05 3.41-.53 4.29-1.45.43-.43.84-1.17.87-1.59.02-.23.02-.44-.09-.72-.12-.27-.3-.58-.58-.88-1.12-1.28-2.83-2.35-4.43-3.61z"/><path d="m75.6 58.12c-.41-.56-.77-1.14-1.09-1.73-.33-.59-.65-1.18-.92-1.78l.54.62c-1.3-.28-2.7-.56-3.85-.58-.56-.02-1.08.11-1.13.19 0 .01-.01.02-.03.01-.02 0-.09.09-.13.13-.1.1-.2.21-.29.33-.19.23-.38.46-.54.7-.66.98-1.08 1.93-.88 2.87.11.49.42 1 .84 1.52.22.25.48.48.73.74.28.22.56.47.84.73-.38-.01-.76-.05-1.15-.11-.37-.09-.76-.19-1.13-.35-.75-.31-1.48-.85-2.01-1.65-.52-.82-.69-1.87-.57-2.79.11-.93.44-1.77.87-2.51.21-.37.44-.72.71-1.05.13-.16.27-.33.42-.49.08-.09.12-.14.24-.25.13-.11.26-.21.4-.31 1.16-.75 2.18-.65 3.03-.59 1.72.23 3.09.85 4.44 1.66l.5.3.04.32c.08.66.12 1.32.15 2 .02.69.02 1.37-.03 2.07z"/><path d="m86.92 54.34c-.69.36-1.38.64-2.08.9-.7.27-1.4.48-2.1.69l.84-1.46c1.46 2.35 2.64 4.83 3.59 7.39.48 1.28.89 2.6 1.23 3.94.32 1.35.59 2.72.68 4.18-.99-1.06-1.8-2.2-2.56-3.37-.74-1.17-1.4-2.38-2.01-3.61-1.2-2.46-2.18-5.02-2.88-7.7l-.39-1.51 1.23.04c.73.03 1.47.06 2.21.15.75.08 1.49.19 2.24.36z"/><path d="m93.39 53.8c1.62-.3 3.23-.5 4.85-.68l1.4-.16-.92 1.33c-.77 1.12-1.43 2.57-2.04 3.92-.61 1.38-1.12 2.8-1.68 4.25-1.12 2.88-2.28 5.76-3.61 8.6-.69 1.42-1.36 2.82-2.26 4.24-.98 1.55-2.33 2.61-3.69 3.53-.69.46-1.43.86-2.22 1.17-.4.15-.81.3-1.26.38-.44.09-.94.15-1.51-.02-.55-.17-.94-.54-1.21-.91-.28-.37-.43-.77-.57-1.16-.26-.79-.36-1.58-.37-2.37.29.73.62 1.44 1.04 2.05.4.6.96 1.13 1.4 1.1.41 0 1.11-.31 1.68-.67.59-.38 1.16-.83 1.71-1.3 1.08-.96 2.09-2.04 2.66-3.18.67-1.25 1.28-2.68 1.9-4.07 1.23-2.81 2.46-5.65 3.81-8.46.67-1.4 1.4-2.82 2.24-4.18.41-.69.86-1.35 1.36-1.99.51-.65.97-1.26 1.66-1.87l.48 1.17c-1.61-.22-3.23-.42-4.85-.72z"/></g></svg>