<?xml version="1.0" encoding="utf-8"?>
<!-- Generator: Adobe Illustrator 23.0.6, SVG Export Plug-In . SVG Version: 6.00 Build 0)  -->
<svg version="1.1" id="Layer_1" xmlns="http://www.w3.org/2000/svg" xmlns:xlink="http://www.w3.org/1999/xlink" x="0px" y="0px"
	 viewBox="0 0 124.49 124.49" style="enable-background:new 0 0 124.49 124.49;" xml:space="preserve">
<style type="text/css">
	.st0{fill:#4D555C;}
	.st1{fill:#E26567;}
	.st2{fill:#FFFFFF;}
</style>
<path class="st0" d="M55.16,53.16c-0.69-3.32-1.23-6.73-0.85-10.24c0.35-3.48,1.69-7.08,4.42-9.7c2.77-2.57,6.46-3.67,9.93-3.83
	c3.43-0.2,6.87,0.02,10.21,0.76c-3.39,0.22-6.72,0.65-9.99,1.16c-3.18,0.53-6.26,1.63-8.45,3.72c-2.22,2.05-3.52,5.07-4.21,8.2
	C55.54,46.39,55.42,49.77,55.16,53.16"/>
<path class="st0" d="M78.86,30.15c0.55,3.51,0.72,7.01,0.8,10.5l0.03,1.17L78.4,41.7c-1.79-0.16-3.55-0.35-5.17-0.16
	c-1.64,0.13-3.07,0.71-4.1,1.78c-1.03,1.1-1.66,2.69-1.92,4.38c-0.26,1.71-0.2,3.55-0.24,5.41c-0.64-1.74-1.2-3.53-1.27-5.48
	c-0.07-1.94,0.35-4.05,1.71-5.76c1.34-1.77,3.59-2.59,5.56-2.78c2.02-0.17,3.93,0.09,5.75,0.45l-1.26,1.05
	C77.74,37.1,78.11,33.62,78.86,30.15"/>
<path class="st0" d="M67.79,53.47c1.7-0.5,3.39-0.77,5.09-0.97c1.7-0.21,3.4-0.3,5.1-0.34l1.37-0.03l-0.14,1.39
	c-0.2,1.92-0.49,3.82-0.89,5.71c-0.4,1.89-0.9,3.77-1.66,5.62c-0.32-1.98-0.37-3.92-0.33-5.85c0.05-1.93,0.2-3.85,0.45-5.76L78,54.6
	c-1.7-0.01-3.4-0.07-5.1-0.25C71.2,54.18,69.5,53.94,67.79,53.47"/>
<path class="st0" d="M55.11,53.21c-3.27,0.65-6.52,0.91-9.76,1.1l1.11-1.21c0.65,3.95,0.38,8.06-0.79,11.89l-1.09-1.34
	c3.2,0.15,6.4,0.37,9.62,0.98c-3.17,0.67-6.35,0.96-9.54,1.18l-1.36,0.09l0.27-1.44c0.7-3.67,0.95-7.39,0.73-11.12l-0.07-1.27
	l1.19,0.06C48.66,52.33,51.89,52.58,55.11,53.21"/>
<path class="st0" d="M55.15,65.45c0.18,4.75,0.29,9.5,0.26,14.24c0.01,4.74,0,9.48-0.11,14.22l-1.14-1.2
	c4.29,0,8.58,0.01,12.87,0.08l-1.24,1.24c-0.05-4.78-0.04-9.57,0-14.35c0.13-4.79,0.16-9.57,0.37-14.35l0.02-0.5l0.45,0.01
	c2.55,0.04,5.09,0.05,7.64,0.16c-2.53,0.33-5.07,0.55-7.6,0.81l0.47-0.49c0.33,4.78,0.49,9.56,0.74,14.34
	c0.16,4.78,0.29,9.56,0.36,14.34l0.02,1.25l-1.25-0.01c-4.29-0.03-8.58-0.11-12.87-0.21L52.94,95l0.05-1.17
	c0.22-4.74,0.55-9.47,0.89-14.2C54.19,74.89,54.64,70.17,55.15,65.45"/>
<path class="st0" d="M90.64,102.07c-4.13,3.26-8.89,5.75-13.91,7.51c-5.04,1.68-10.38,2.58-15.73,2.57
	c-10.7,0.01-21.45-3.5-30.05-9.98c-8.63-6.45-15-15.77-18.06-26.03c-1.45-5.17-1.98-10.52-1.9-15.84
	c0.29-5.31,1.32-10.57,3.29-15.46c-2.99,10.1-2.68,20.92,0.43,30.73c1.72,4.86,3.97,9.52,6.96,13.71
	c2.92,4.23,6.67,7.84,10.76,10.91c8.1,6.35,18.32,9.67,28.6,10.07C71.35,110.67,81.78,107.72,90.64,102.07"/>
<path class="st0" d="M19.68,33.79c3.69-6.12,8.81-11.39,14.77-15.47c6.04-3.96,12.93-6.67,20.12-7.79
	c14.37-2.2,29.74,2.07,40.75,11.76c11.02,9.6,17.71,24.05,17.49,38.65c-0.09,7.27-1.73,14.5-4.82,21.03
	c-3.15,6.49-7.64,12.32-13.2,16.82c10.44-9.76,16.44-23.82,16.12-37.84c-0.18-7-1.69-13.96-4.67-20.27
	c-2.95-6.32-7.26-11.98-12.53-16.52c-5.21-4.6-11.43-8.1-18.13-10.05c-6.68-1.99-13.79-2.5-20.74-1.7
	C40.89,14.1,27.88,22.08,19.68,33.79"/>
</svg>
